<svg width="400" height="400" viewBox="0 0 400 400" xmlns="http://www.w3.org/2000/svg">
  <!-- Main Cube -->
  <g transform="translate(200 200) rotate3d(1, 1, 0, 30)">
    <!-- Top face -->
    <polygon points="-60,-60 60,-60 60,60 -60,60" fill="#ff5252" transform="translate(0 -60) rotateX(90)" stroke="#333" stroke-width="2"/>
    
    <!-- Front face -->
    <polygon points="-60,-60 60,-60 60,60 -60,60" fill="#1e88e5" stroke="#333" stroke-width="2"/>
    
    <!-- Right face -->
    <polygon points="-60,-60 60,-60 60,60 -60,60" fill="#4caf50" transform="translate(60 0) rotateY(90)" stroke="#333" stroke-width="2"/>
    
    <!-- Grid lines for cubes (3x3) -->
    <!-- Front face grid -->
    <line x1="-60" y1="-20" x2="60" y2="-20" stroke="#333" stroke-width="2"/>
    <line x1="-60" y1="20" x2="60" y2="20" stroke="#333" stroke-width="2"/>
    <line x1="-20" y1="-60" x2="-20" y2="60" stroke="#333" stroke-width="2"/>
    <line x1="20" y1="-60" x2="20" y2="60" stroke="#333" stroke-width="2"/>
    
    <!-- Top face grid -->
    <line x1="-60" y1="-20" x2="60" y2="-20" stroke="#333" stroke-width="2" transform="translate(0 -60) rotateX(90)"/>
    <line x1="-60" y1="20" x2="60" y2="20" stroke="#333" stroke-width="2" transform="translate(0 -60) rotateX(90)"/>
    <line x1="-20" y1="-60" x2="-20" y2="60" stroke="#333" stroke-width="2" transform="translate(0 -60) rotateX(90)"/>
    <line x1="20" y1="-60" x2="20" y2="60" stroke="#333" stroke-width="2" transform="translate(0 -60) rotateX(90)"/>
    
    <!-- Right face grid -->
    <line x1="-60" y1="-20" x2="60" y2="-20" stroke="#333" stroke-width="2" transform="translate(60 0) rotateY(90)"/>
    <line x1="-60" y1="20" x2="60" y2="20" stroke="#333" stroke-width="2" transform="translate(60 0) rotateY(90)"/>
    <line x1="-20" y1="-60" x2="-20" y2="60" stroke="#333" stroke-width="2" transform="translate(60 0) rotateY(90)"/>
    <line x1="20" y1="-60" x2="20" y2="60" stroke="#333" stroke-width="2" transform="translate(60 0) rotateY(90)"/>
  </g>
  
  <!-- Decorative elements -->
  <circle cx="200" cy="200" r="150" fill="none" stroke="#3366ff" stroke-width="2" stroke-dasharray="10 5" opacity="0.3"/>
</svg> 